<svg version="1.0" viewBox="0 0 469.62 534.45" xmlns="http://www.w3.org/2000/svg" xmlns:xlink="http://www.w3.org/1999/xlink"><defs><linearGradient id="e"><stop stop-color="#b02d30" offset="0"/><stop stop-color="#883739" offset="1"/></linearGradient><linearGradient id="b"><stop stop-color="#c2d597" offset="0"/><stop stop-color="#b2ca7b" offset="1"/></linearGradient><linearGradient id="c" x1="331.27" x2="345.47" y1="144.12" y2="164.77" gradientTransform="translate(-140)" gradientUnits="userSpaceOnUse" xlink:href="#b"/><linearGradient id="g"><stop stop-color="#fff" offset="0"/><stop stop-color="#fff" stop-opacity="0" offset="1"/></linearGradient><linearGradient id="h"><stop stop-opacity=".303" offset="0"/><stop stop-opacity="0" offset="1"/></linearGradient><linearGradient id="f"><stop offset="0"/><stop stop-opacity="0" offset="1"/></linearGradient><linearGradient id="j" x1="146.43" x2="5.945" y1="578.08" y2="577.43" gradientUnits="userSpaceOnUse"><stop stop-color="#cd5200" offset="0"/><stop stop-color="#caca00" offset="1"/></linearGradient><linearGradient id="k" x1="144.64" x2="5.929" y1="578.43" y2="579.86" gradientUnits="userSpaceOnUse"><stop stop-color="#f60" offset="0"/><stop stop-color="#ff0" offset="1"/></linearGradient><linearGradient id="l" x1="140.23" x2=".966" y1="605.49" y2="551.65" gradientUnits="userSpaceOnUse"><stop stop-color="#ff8915" offset="0"/><stop stop-color="#ff0" offset="1"/></linearGradient><linearGradient id="m" x1="115.37" x2="-83.018" y1="627.11" y2="550.67" gradientUnits="userSpaceOnUse"><stop offset="0"/><stop stop-opacity="0" offset="1"/></linearGradient><linearGradient id="n" x1="69.839" x2="81.112" y1="522.38" y2="575.41" gradientTransform="translate(169.54 181.2) scale(.51396)" gradientUnits="userSpaceOnUse" xlink:href="#g"/><linearGradient id="o" x1="162.64" x2="60.352" y1="585.55" y2="555.11" gradientTransform="translate(169.54 181.2) scale(.51396)" gradientUnits="userSpaceOnUse" xlink:href="#h"/><linearGradient id="p" x1="248.39" x2="141.07" y1="501.65" y2="468.79" gradientUnits="userSpaceOnUse" xlink:href="#f"/><linearGradient id="q" x1="69.839" x2="81.112" y1="522.38" y2="575.41" gradientUnits="userSpaceOnUse" xlink:href="#g"/><linearGradient id="r" x1="162.64" x2="60.352" y1="585.55" y2="555.11" gradientUnits="userSpaceOnUse" xlink:href="#h"/><linearGradient id="u" x1="69.839" x2="81.112" y1="522.38" y2="575.41" gradientUnits="userSpaceOnUse"><stop stop-color="#fff" offset="0"/><stop stop-color="#fff" stop-opacity="0" offset="1"/></linearGradient><linearGradient id="v" x1="162.64" x2="60.352" y1="585.55" y2="555.11" gradientUnits="userSpaceOnUse"><stop stop-opacity=".303" offset="0"/><stop stop-opacity="0" offset="1"/></linearGradient><linearGradient id="s" x1="69.839" x2="81.112" y1="522.38" y2="575.41" gradientTransform="translate(169.54 181.2) scale(.51396)" gradientUnits="userSpaceOnUse"><stop stop-color="#fff" offset="0"/><stop stop-color="#fff" stop-opacity="0" offset="1"/></linearGradient><linearGradient id="t" x1="162.64" x2="60.352" y1="585.55" y2="555.11" gradientTransform="translate(169.54 181.2) scale(.51396)" gradientUnits="userSpaceOnUse"><stop stop-opacity=".303" offset="0"/><stop stop-opacity="0" offset="1"/></linearGradient><filter id="z" x="-.447" y="-.254" width="1.893" height="1.508" color-interpolation-filters="sRGB"><feGaussianBlur stdDeviation="18.537"/></filter><filter id="B" x="-.145" y="-.098" width="1.289" height="1.197" color-interpolation-filters="sRGB"><feGaussianBlur stdDeviation="5.989"/></filter><filter id="D" x="-.176" y="-.179" width="1.353" height="1.358" color-interpolation-filters="sRGB"><feGaussianBlur stdDeviation="6.444"/></filter><filter id="F" color-interpolation-filters="sRGB"><feGaussianBlur stdDeviation="2.888"/></filter><filter id="I" color-interpolation-filters="sRGB"><feGaussianBlur stdDeviation=".159"/></filter><filter id="H" color-interpolation-filters="sRGB"><feGaussianBlur stdDeviation=".173"/></filter><filter id="w" color-interpolation-filters="sRGB"><feGaussianBlur stdDeviation=".465"/></filter><filter id="G" color-interpolation-filters="sRGB"><feGaussianBlur stdDeviation=".464"/></filter><radialGradient id="a" cx="495.01" cy="225.08" r="86.048" gradientTransform="matrix(1.5452 -.36517 .38273 1.6196 -96.171 42.49)" gradientUnits="userSpaceOnUse" xlink:href="#b"/><radialGradient id="d" cx="266.66" cy="363.02" r="60.956" gradientTransform="matrix(1.8139 .94173 -.69006 1.0622 53.682 -240.25)" gradientUnits="userSpaceOnUse"><stop stop-color="#bed092" offset="0"/><stop stop-color="#b3d57e" offset=".375"/><stop stop-color="#65893c" offset="1"/></radialGradient><radialGradient id="y" cx="461.41" cy="321.55" r="86.048" gradientTransform="matrix(.82876 -3.5691 1.363 .3165 -81.034 1925.4)" gradientUnits="userSpaceOnUse"><stop stop-color="#37441b" offset="0"/><stop stop-color="#c2d597" stop-opacity="0" offset="1"/></radialGradient><radialGradient id="J" cx="714.74" cy="248.28" r="51.854" gradientTransform="matrix(1.1892 -.28425 .3668 1.5345 -226.27 63.88)" gradientUnits="userSpaceOnUse" xlink:href="#e"/><radialGradient id="K" cx="153.62" cy="158.38" r="43.976" gradientTransform="matrix(1.5327 .12641 -.08206 .99501 -68.838 -18.613)" gradientUnits="userSpaceOnUse" xlink:href="#e"/><radialGradient id="i" cx="179.05" cy="512.94" r="58.841" gradientTransform="matrix(1 0 0 .36052 0 328.02)" gradientUnits="userSpaceOnUse" xlink:href="#f"/><radialGradient id="L" cx="251.79" cy="372.9" r="25.975" gradientTransform="matrix(.71055 0 0 1.1438 155.36 -56.969)" gradientUnits="userSpaceOnUse" xlink:href="#e"/><clipPath id="x"><path d="M688.38 337.76c33.959 3.666 103.24-40.5 67.5-128.65-35.735-88.147-146.41-69.02-162-18.265-2.95 9.602 45.515 19.719 65.912 58.765s12.02 86.358 28.588 88.147z" fill="#ddaee9" fill-rule="evenodd"/></clipPath><clipPath id="A"><path d="M748.38 337.76c33.959 3.666 103.24-40.5 67.5-128.65-35.735-88.147-146.41-69.02-162-18.265-2.95 9.602 45.515 19.719 65.912 58.765s12.02 86.358 28.588 88.147z" fill="url(#a)" fill-rule="evenodd"/></clipPath><clipPath id="C"><path d="M214.32 159.35c19.296-6.743 57.285-29.585 42.676-41.834-21.907 7.501-56.523-55.106-120.73-13.757-36.871 23.745 12.213 90.265-.14 107.67 17.152-28.608 27.964-34.578 78.192-52.082z" fill="url(#c)" fill-rule="evenodd"/></clipPath><clipPath id="E"><path d="M265.82 354.97c-7.83 9.333-25.563 13.474-26.542 33.395-.993 20.213 17.934 56.514 45.548 63.567 27.525 7.03 30.475-.879 44.565-.293 13.763.572 14.746-48.92-9.83-72.062-24.413-22.988-42.271-26.657-53.74-24.607z" fill="url(#d)" fill-rule="evenodd"/></clipPath></defs><path transform="matrix(1.1375 0 0 1.3779 -128.94 -229.289)" d="M237.89 512.94c0 11.716-26.344 21.213-58.841 21.213s-58.841-9.498-58.841-21.213 26.344-21.213 58.841-21.213 58.841 9.498 58.841 21.213z" fill="url(#i)"/><path transform="matrix(.86232 0 0 .8057 6.004 .282)" d="M145.71 579.86c0 17.949-31.18 32.5-69.643 32.5s-69.643-14.551-69.643-32.5 31.18-32.5 69.643-32.5 69.643 14.551 69.643 32.5z" fill="url(#j)" stroke="#000"/><path transform="matrix(.86212 0 0 .86212 5.501 -39.389)" d="M145.71 579.86c0 17.949-31.18 32.5-69.643 32.5s-69.643-14.551-69.643-32.5 31.18-32.5 69.643-32.5 69.643 14.551 69.643 32.5z" fill="url(#k)" stroke="#000"/><path d="m11.037 460.51.525 7.84.398 2.629-.109-5.685M131.088 459.386l.436 7.947-.436 3.484-.326-6.859h-.11" fill="none" stroke="#000" stroke-width=".8621836"/><path d="m18.736 474.198.067 5.878c6.005 6.338 26.49 11.101 35.789 13.009l.066-5.77c-9.93-.047-29.426-6.115-35.589-12.682M92.407 486.795l.067 5.225c5.002-.514 24.873-2.62 36.497-16.82l.067-7.728c-7.404 10.426-25.633 18.263-35.318 18.451" fill-opacity=".468" fill-rule="evenodd"/><path transform="matrix(.78965 0 0 .7563 11.003 21.702)" d="M145.71 579.86c0 17.949-31.18 32.5-69.643 32.5s-69.643-14.551-69.643-32.5 31.18-32.5 69.643-32.5 69.643 14.551 69.643 32.5z" fill="url(#l)" stroke="url(#m)"/><path d="M244.3 477.54c4.932-4.932 8.307-7.788 3.634-12.201-4.672-4.413-15.056-6.49-25.18-5.71-10.124.778-18.95 3.893-22.065 8.565-3.115 4.673-2.336 8.307.52 10.384 2.855 2.077 6.749 2.337 6.749 2.337" fill="url(#n)" fill-rule="evenodd" transform="translate(-312.45 -333.789) scale(1.6774)"/><path d="M199.91 477.41c2.412 2.073 5.162 4.109 10.643 5.84l46.207-12.72c-1.526-3.238-4.836-5.585-10.513-6.749l-16.354-1.427-15.835 3.245 17.912 2.336-32.059 9.475" fill="url(#o)" fill-rule="evenodd" stroke="url(#p)" stroke-width=".514" transform="translate(-312.45 -333.789) scale(1.6774)"/><path transform="matrix(.86228 0 0 .80571 13.74 -29.426)" d="M145.71 579.86c0 17.949-31.18 32.5-69.643 32.5s-69.643-14.551-69.643-32.5 31.18-32.5 69.643-32.5 69.643 14.551 69.643 32.5z" fill="url(#j)" stroke="#000"/><path transform="translate(13.231 -69.104) scale(.86211)" d="M145.71 579.86c0 17.949-31.18 32.5-69.643 32.5s-69.643-14.551-69.643-32.5 31.18-32.5 69.643-32.5 69.643 14.551 69.643 32.5z" fill="url(#k)" stroke="#000"/><path d="m18.773 430.8.525 7.84.398 2.628-.108-5.685M138.824 429.679l.436 7.946-.436 3.484-.326-6.858h-.11" fill="none" stroke="#000" stroke-width=".86211"/><path d="m26.48 444.481.066 5.879c6.005 6.337 26.49 11.1 35.79 13.008l.066-5.77c-9.93-.051-29.425-6.12-35.588-12.681M100.15 457.085l.067 5.225c5.001-.514 24.872-2.62 36.497-16.818l.067-7.73c-7.404 10.426-25.633 18.264-35.317 18.452" fill-opacity=".468" fill-rule="evenodd"/><path transform="matrix(.78966 0 0 .7563 18.743 -8.002)" d="M145.71 579.86c0 17.949-31.18 32.5-69.643 32.5s-69.643-14.551-69.643-32.5 31.18-32.5 69.643-32.5 69.643 14.551 69.643 32.5z" fill="url(#l)" stroke="#000"/><path d="M145.46 576.58c9.596-9.596 16.162-15.152 7.071-23.739-9.091-8.586-29.294-12.627-48.992-11.112-19.698 1.515-36.87 7.576-42.93 16.668-6.062 9.091-4.547 16.162 1.01 20.203 5.555 4.04 13.131 4.546 13.131 4.546" fill="url(#q)" fill-rule="evenodd" transform="translate(-20.33 -59.56) scale(.86211)"/><path d="M59.094 576.33c4.692 4.034 10.043 7.994 20.708 11.364l89.904-24.749c-2.969-6.302-9.41-10.868-20.456-13.132l-31.82-2.778-30.81 6.314 34.85 4.545-62.377 18.435" fill="url(#r)" fill-rule="evenodd" stroke="#000" transform="translate(-20.33 -59.56) scale(.86211)"/><path transform="matrix(1.1375 0 0 1.3779 -39.66 -194.219)" d="M237.89 512.94c0 11.716-26.344 21.213-58.841 21.213s-58.841-9.498-58.841-21.213 26.344-21.213 58.841-21.213 58.841 9.498 58.841 21.213z" fill="url(#i)"/><path transform="matrix(.86232 0 0 .8057 95.284 35.352)" d="M145.71 579.86c0 17.949-31.18 32.5-69.643 32.5s-69.643-14.551-69.643-32.5 31.18-32.5 69.643-32.5 69.643 14.551 69.643 32.5z" fill="url(#j)" stroke="#000"/><path transform="matrix(.86212 0 0 .86212 94.781 -4.319)" d="M145.71 579.86c0 17.949-31.18 32.5-69.643 32.5s-69.643-14.551-69.643-32.5 31.18-32.5 69.643-32.5 69.643 14.551 69.643 32.5z" fill="url(#k)" stroke="#000"/><path d="m100.317 495.58.525 7.84.398 2.629-.109-5.685M220.368 494.456l.436 7.947-.436 3.484-.326-6.859h-.11" fill="none" stroke="#000" stroke-width=".8621836"/><path d="m108.016 509.268.067 5.878c6.005 6.338 26.49 11.101 35.789 13.009l.066-5.77c-9.93-.047-29.426-6.115-35.589-12.682M181.687 521.865l.067 5.225c5.002-.514 24.873-2.62 36.497-16.82l.067-7.728c-7.404 10.426-25.633 18.263-35.318 18.451" fill-opacity=".468" fill-rule="evenodd"/><path transform="matrix(.78965 0 0 .7563 100.283 56.772)" d="M145.71 579.86c0 17.949-31.18 32.5-69.643 32.5s-69.643-14.551-69.643-32.5 31.18-32.5 69.643-32.5 69.643 14.551 69.643 32.5z" fill="url(#l)" stroke="url(#m)"/><path d="M244.3 477.54c4.932-4.932 8.307-7.788 3.634-12.201-4.672-4.413-15.056-6.49-25.18-5.71-10.124.778-18.95 3.893-22.065 8.565-3.115 4.673-2.336 8.307.52 10.384 2.855 2.077 6.749 2.337 6.749 2.337" fill="url(#s)" fill-rule="evenodd" transform="translate(-223.17 -298.719) scale(1.6774)"/><path d="M199.91 477.41c2.412 2.073 5.162 4.109 10.643 5.84l46.207-12.72c-1.526-3.238-4.836-5.585-10.513-6.749l-16.354-1.427-15.835 3.245 17.912 2.336-32.059 9.475" fill="url(#t)" fill-rule="evenodd" stroke="url(#p)" stroke-width=".514" transform="translate(-223.17 -298.719) scale(1.6774)"/><path transform="matrix(.79162 0 0 .73968 71.758 67.337)" d="M145.71 579.86c0 17.949-31.18 32.5-69.643 32.5s-69.643-14.551-69.643-32.5 31.18-32.5 69.643-32.5 69.643 14.551 69.643 32.5z" fill="url(#j)" stroke="#000"/><path transform="translate(71.29 30.91) scale(.79146)" d="M145.71 579.86c0 17.949-31.18 32.5-69.643 32.5s-69.643-14.551-69.643-32.5 31.18-32.5 69.643-32.5 69.643 14.551 69.643 32.5z" fill="url(#k)" stroke="#000"/><path d="m76.378 489.847.483 7.197.365 2.413-.1-5.22M186.591 488.818l.4 7.295-.4 3.198-.3-6.296h-.1" fill="none" stroke="#000" stroke-width=".79146"/><path d="m83.453 502.407.061 5.397c5.513 5.818 24.32 10.19 32.857 11.942l.061-5.297c-9.116-.047-27.014-5.62-32.672-11.642M151.087 513.978l.06 4.797c4.593-.472 22.834-2.405 33.507-15.44l.062-7.096c-6.797 9.571-23.533 16.767-32.423 16.94" fill-opacity=".468" fill-rule="evenodd"/><path transform="matrix(.72495 0 0 .69432 76.351 87.005)" d="M145.71 579.86c0 17.949-31.18 32.5-69.643 32.5s-69.643-14.551-69.643-32.5 31.18-32.5 69.643-32.5 69.643 14.551 69.643 32.5z" fill="url(#l)" stroke="#000"/><path d="M145.46 576.58c9.596-9.596 16.162-15.152 7.071-23.739-9.091-8.586-29.294-12.627-48.992-11.112-19.698 1.515-36.87 7.576-42.93 16.668-6.062 9.091-4.547 16.162 1.01 20.203 5.555 4.04 13.131 4.546 13.131 4.546" fill="url(#q)" fill-rule="evenodd" transform="translate(40.48 39.672) scale(.79146)"/><path d="M59.094 576.33c4.692 4.034 10.043 7.994 20.708 11.364l89.904-24.749c-2.969-6.302-9.41-10.868-20.456-13.132l-31.82-2.778-30.81 6.314 34.85 4.545-62.377 18.435" fill="url(#r)" fill-rule="evenodd" stroke="#000" transform="translate(40.48 39.672) scale(.79146)"/><path transform="matrix(.86228 0 0 .80571 32.67 -46.34)" d="M145.71 579.86c0 17.949-31.18 32.5-69.643 32.5s-69.643-14.551-69.643-32.5 31.18-32.5 69.643-32.5 69.643 14.551 69.643 32.5z" fill="url(#j)" stroke="#000"/><path transform="translate(32.161 -86.018) scale(.86211)" d="M145.71 579.86c0 17.949-31.18 32.5-69.643 32.5s-69.643-14.551-69.643-32.5 31.18-32.5 69.643-32.5 69.643 14.551 69.643 32.5z" fill="url(#k)" stroke="#000"/><path d="m37.703 413.886.525 7.84.398 2.628-.108-5.685M157.754 412.765l.436 7.946-.436 3.484-.326-6.858h-.11" fill="none" stroke="#000" stroke-width=".86211"/><path d="m45.41 427.567.066 5.879c6.005 6.337 26.49 11.1 35.79 13.008l.066-5.77c-9.93-.051-29.425-6.12-35.588-12.681M119.08 440.171l.067 5.225c5.001-.514 24.872-2.62 36.497-16.818l.067-7.73c-7.404 10.426-25.633 18.264-35.317 18.452" fill-opacity=".468" fill-rule="evenodd"/><path transform="matrix(.78966 0 0 .7563 37.673 -24.916)" d="M145.71 579.86c0 17.949-31.18 32.5-69.643 32.5s-69.643-14.551-69.643-32.5 31.18-32.5 69.643-32.5 69.643 14.551 69.643 32.5z" fill="url(#l)" stroke="#000"/><path d="M145.46 576.58c9.596-9.596 16.162-15.152 7.071-23.739-9.091-8.586-29.294-12.627-48.992-11.112-19.698 1.515-36.87 7.576-42.93 16.668-6.062 9.091-4.547 16.162 1.01 20.203 5.555 4.04 13.131 4.546 13.131 4.546" fill="url(#u)" fill-rule="evenodd" transform="translate(-1.4 -76.474) scale(.86211)"/><path d="M59.094 576.33c4.692 4.034 10.043 7.994 20.708 11.364l89.904-24.749c-2.969-6.302-9.41-10.868-20.456-13.132l-31.82-2.778-30.81 6.314 34.85 4.545-62.377 18.435" fill="url(#v)" fill-rule="evenodd" stroke="#000" transform="translate(-1.4 -76.474) scale(.86211)"/><path transform="matrix(.86228 0 0 .80571 .67 -64.34)" d="M145.71 579.86c0 17.949-31.18 32.5-69.643 32.5s-69.643-14.551-69.643-32.5 31.18-32.5 69.643-32.5 69.643 14.551 69.643 32.5z" fill="url(#j)" stroke="#000"/><path transform="translate(.161 -104.018) scale(.86211)" d="M145.71 579.86c0 17.949-31.18 32.5-69.643 32.5s-69.643-14.551-69.643-32.5 31.18-32.5 69.643-32.5 69.643 14.551 69.643 32.5z" fill="url(#k)" stroke="#000"/><path d="m5.703 395.886.525 7.84.398 2.628-.108-5.685M125.754 394.765l.436 7.946-.436 3.484-.326-6.858h-.11" fill="none" stroke="#000" stroke-width=".86211"/><path d="m13.41 409.567.066 5.879c6.005 6.337 26.49 11.1 35.79 13.008l.066-5.77c-9.93-.051-29.425-6.12-35.588-12.681M87.08 422.171l.067 5.225c5.001-.514 24.872-2.62 36.497-16.818l.067-7.73c-7.404 10.426-25.633 18.264-35.317 18.452" fill-opacity=".468" fill-rule="evenodd"/><path transform="matrix(.78966 0 0 .7563 5.673 -42.916)" d="M145.71 579.86c0 17.949-31.18 32.5-69.643 32.5s-69.643-14.551-69.643-32.5 31.18-32.5 69.643-32.5 69.643 14.551 69.643 32.5z" fill="url(#l)" stroke="#000"/><path d="M145.46 576.58c9.596-9.596 16.162-15.152 7.071-23.739-9.091-8.586-29.294-12.627-48.992-11.112-19.698 1.515-36.87 7.576-42.93 16.668-6.062 9.091-4.547 16.162 1.01 20.203 5.555 4.04 13.131 4.546 13.131 4.546" fill="url(#u)" fill-rule="evenodd" transform="translate(-33.4 -94.474) scale(.86211)"/><path d="M59.094 576.33c4.692 4.034 10.043 7.994 20.708 11.364l89.904-24.749c-2.969-6.302-9.41-10.868-20.456-13.132l-31.82-2.778-30.81 6.314 34.85 4.545-62.377 18.435" fill="url(#v)" fill-rule="evenodd" stroke="#000" transform="translate(-33.4 -94.474) scale(.86211)"/><path transform="matrix(.86228 0 0 .80571 14.67 -72.34)" d="M145.71 579.86c0 17.949-31.18 32.5-69.643 32.5s-69.643-14.551-69.643-32.5 31.18-32.5 69.643-32.5 69.643 14.551 69.643 32.5z" fill="url(#j)" stroke="#000"/><path transform="translate(14.161 -112.018) scale(.86211)" d="M145.71 579.86c0 17.949-31.18 32.5-69.643 32.5s-69.643-14.551-69.643-32.5 31.18-32.5 69.643-32.5 69.643 14.551 69.643 32.5z" fill="url(#k)" stroke="#000"/><path d="m19.703 387.886.525 7.84.398 2.628-.108-5.685M139.754 386.765l.436 7.946-.436 3.484-.326-6.858h-.11" fill="none" stroke="#000" stroke-width=".86211"/><path d="m27.41 401.567.066 5.879c6.005 6.337 26.49 11.1 35.79 13.008l.066-5.77c-9.93-.051-29.425-6.12-35.588-12.681M101.08 414.171l.067 5.225c5.001-.514 24.872-2.62 36.497-16.818l.067-7.73c-7.404 10.426-25.633 18.264-35.317 18.452" fill-opacity=".468" fill-rule="evenodd"/><path transform="matrix(.78966 0 0 .7563 19.673 -50.916)" d="M145.71 579.86c0 17.949-31.18 32.5-69.643 32.5s-69.643-14.551-69.643-32.5 31.18-32.5 69.643-32.5 69.643 14.551 69.643 32.5z" fill="url(#l)" stroke="#000"/><path d="M145.46 576.58c9.596-9.596 16.162-15.152 7.071-23.739-9.091-8.586-29.294-12.627-48.992-11.112-19.698 1.515-36.87 7.576-42.93 16.668-6.062 9.091-4.547 16.162 1.01 20.203 5.555 4.04 13.131 4.546 13.131 4.546" fill="url(#u)" fill-rule="evenodd" transform="translate(-19.4 -102.474) scale(.86211)"/><path d="M59.094 576.33c4.692 4.034 10.043 7.994 20.708 11.364l89.904-24.749c-2.969-6.302-9.41-10.868-20.456-13.132l-31.82-2.778-30.81 6.314 34.85 4.545-62.377 18.435" fill="url(#v)" fill-rule="evenodd" stroke="#000" transform="translate(-19.4 -102.474) scale(.86211)"/><path transform="matrix(.86228 0 0 .80571 2.67 -102.345)" d="M145.71 579.86c0 17.949-31.18 32.5-69.643 32.5s-69.643-14.551-69.643-32.5 31.18-32.5 69.643-32.5 69.643 14.551 69.643 32.5z" fill="url(#j)" stroke="#000"/><path transform="translate(2.161 -142.023) scale(.86211)" d="M145.71 579.86c0 17.949-31.18 32.5-69.643 32.5s-69.643-14.551-69.643-32.5 31.18-32.5 69.643-32.5 69.643 14.551 69.643 32.5z" fill="url(#k)" stroke="#000"/><path d="m7.703 357.88.525 7.841.398 2.628-.108-5.685M127.754 356.76l.436 7.946-.436 3.484-.326-6.858h-.11" fill="none" stroke="#000" stroke-width=".86211"/><path d="m15.41 371.562.066 5.879c6.005 6.337 26.49 11.1 35.79 13.008l.066-5.77c-9.93-.051-29.425-6.12-35.588-12.681M89.08 384.166l.067 5.225c5.001-.514 24.872-2.62 36.497-16.818l.067-7.73c-7.404 10.426-25.633 18.264-35.317 18.452" fill-opacity=".468" fill-rule="evenodd"/><path transform="matrix(.78966 0 0 .7563 7.673 -80.92)" d="M145.71 579.86c0 17.949-31.18 32.5-69.643 32.5s-69.643-14.551-69.643-32.5 31.18-32.5 69.643-32.5 69.643 14.551 69.643 32.5z" fill="url(#l)" stroke="#000"/><path d="M145.46 576.58c9.596-9.596 16.162-15.152 7.071-23.739-9.091-8.586-29.294-12.627-48.992-11.112-19.698 1.515-36.87 7.576-42.93 16.668-6.062 9.091-4.547 16.162 1.01 20.203 5.555 4.04 13.131 4.546 13.131 4.546" fill="url(#u)" fill-rule="evenodd" transform="translate(-31.4 -132.479) scale(.86211)"/><path d="M59.094 576.33c4.692 4.034 10.043 7.994 20.708 11.364l89.904-24.749c-2.969-6.302-9.41-10.868-20.456-13.132l-31.82-2.778-30.81 6.314 34.85 4.545-62.377 18.435" fill="url(#v)" fill-rule="evenodd" stroke="#000" transform="translate(-31.4 -132.479) scale(.86211)"/><path d="M384.32 387.611s.2 24.737-13.965 32.119c-10.12 5.274-31.52-5.785-31.52-5.785l45.485-26.333zM152.15 416.151s-.2 24.737 13.965 32.119c10.12 5.274 31.52-5.785 31.52-5.785l-45.485-26.333z" fill="#faa" fill-rule="evenodd"/><path d="M276.01 173.501c-22.168.01-44.492 4.123-65.171 11.746-58.664 21.626-90.442 69.898-98.189 101.01-29.112 116.92 82.775 156.61 91.128 163.91 8.211 7.18 10.584 28.743 36.393 27.933 25.821-.81 29.872-20.297 41.19-25.402 10.846-4.893 30.482-1.756 87.464-45.697 56.708-43.73 58.295-138.48 19.762-184.52-14.508-17.335-30.649-28.855-50.338-36.835-2.247-.501-5.427-.68-7.091-.747-.612-1.014-1.332-1.92-2.457-2.986-16.81-5.722-34.697-8.424-52.692-8.416z" fill="#ffd5d5" fill-rule="evenodd"/><path transform="translate(-67.34 100.421) scale(.71055)" d="M277.39 252.7c1.59-4.826 8.043-18.51 14.88-12.354 3.11 3.806-6.879 20.917-11.09 21.9-4.211.983-4.492-8.423-3.79-9.546z" fill="#f8fcf0" fill-rule="evenodd" filter="url(#w)" opacity=".75"/><path d="M279.68 340.421c24.129 2.605 73.354-28.777 47.962-91.41s-104.03-49.042-115.11-12.978c-2.096 6.823 32.34 14.011 46.834 41.755 14.493 27.744 8.54 61.362 20.313 62.633zM184.42 213.651c13.71-4.791 40.704-21.021 30.323-29.725-15.566 5.33-40.162-39.155-85.783-9.775-26.198 16.872 8.678 64.138-.1 76.507 12.188-20.327 19.87-24.57 55.56-37.006z" fill="#faa" fill-rule="evenodd"/><path transform="translate(-209.451 100.421) scale(.71055)" d="M776.89 202.84c.29 2.716-60.934-45.281-55.945-39.397 63.768 75.212 9.69 161.39-54.693 145.9 2.415 16.033 8.696 35.289 14.976 40.318 28.252 22.623 124.84-63.495 95.662-146.82z" clip-path="url(#x)" fill="url(#y)" fill-rule="evenodd" filter="url(#z)"/><path transform="translate(-252.084 100.421) scale(.71055)" d="M648.58 197.53s53.174-24.134 87.598 5.615c45.484 39.307 3.93 142.07 3.93 142.07l-91.53-147.69z" clip-path="url(#A)" fill="#889869" fill-rule="evenodd" filter="url(#B)" opacity=".5"/><path transform="translate(32.14 100.421) scale(.71055)" d="M213.76 163.84c-27.515-7.3-62.329-54.468-82.544-35.938-14.924 13.681 16.284 76.368 7.861 83.667-8.422 7.3 88.216-43.997 74.683-47.73z" clip-path="url(#C)" fill="#839464" fill-rule="evenodd" filter="url(#D)" opacity=".5"/><path d="M113.79 316.161c-6.741 8.989-22.01 12.977-22.852 32.163-.855 19.467 15.441 54.429 39.216 61.222 23.699 6.771 26.238-.846 38.37-.282 11.85.551 12.696-47.116-8.464-69.404-21.019-22.14-36.395-25.674-46.269-23.7z" fill="#faa" fill-rule="evenodd"/><path transform="matrix(.86098 0 0 .96311 -115.08 -25.714)" d="M309.4 437.02a62.329 67.828 0 1 1-124.66 0 62.329 67.828 0 1 1 124.66 0z" clip-path="url(#E)" fill="#dbe1d2" filter="url(#F)" opacity=".5"/><path transform="translate(-67.34 100.421) scale(.71055)" d="M338.74 271.37c6.598.983 11.581 6.879 5.405 19.373l-10.318.842s-4.633-6.177-4.212-11.652c.421-5.475 7.02-8.703 9.125-8.563z" fill="#eff8dc" fill-rule="evenodd" filter="url(#G)"/><g fill="#212901" fill-rule="evenodd"><path d="M374.56 210.72c-.355.072-.737.597-1 1.844-1.025 4.856-7.478 16.595-12.625 24.625-4.867 7.593-15.001 23.74-17.906 26.812-.006.007-.025-.007-.031 0a14.842 14.842 0 0 0-1.281-.219c.877-4.275 14.552-28.176 14.719-33.531.043-1.398-.317-2.03-.72-2.031-.402-.002-.85.625-.968 1.75-.781 7.479-14.488 30.719-16.5 33.875-9.646 1.647-14.583 15.182-13.406 22.125 0 0 5.085-21.907 18.094-15.438 12.84 6.386-.969 28.219-.969 28.219 8.493-2.954 14.683-23.722 6.625-31.812.747-2.994 13.226-15.966 14.97-17.844 1.824-1.965-1.189-2.966-1.47-1.281-.248 1.49-12.638 16.286-15.374 17.594-.166-.1-.358-.19-.532-.282.26-2.61 11.248-19.799 15.906-27.28 4.686-7.527 11.69-20.387 13.156-24.876.404-1.234-.096-2.369-.687-2.25z" filter="url(#H)" opacity=".9" transform="translate(-67.34 100.421) scale(.71055)"/><path d="M174.553 298.53c3.69 1.895 4.488 6.583 1.596 9.974-2.852 3.343-6.285 4.988-8.579 3.69-2.37-1.339-3.79-6.483-1.995-10.273 1.757-3.71 5.365-5.246 8.977-3.391z" opacity=".9"/></g><g fill="#212901" fill-rule="evenodd"><path d="M326.41 195.44c-.208-.017-.563.087-1.031.375-12.947 7.952-28.985 29.199-32.062 34.062-1.544 2.44-2.952 3.26-3.594 3.531a4.422 4.422 0 0 0-.781-.219c.266-.813 4.173-12.389 15.812-24.156 2.376-2.402.12-2.286-1.094-1-13.148 13.942-14.496 21.63-17.375 25.5-6.86 5.6-11.979 15.963-15.781 23.72 2.58-1.986 9.38-12.613 12.906-17.47 3.421-4.71 11.06-3.37 7.844 7.938-2 7.032-9.932 13.52-11.72 18.781 0 0 10.83-10.134 13.907-18.969.953-2.738 1.055-5.508.594-7.875 2.136-5.1 10.338-15.809 14.188-18.344 1.592-1.049 2.15-3.184-.188-1.781-5.32 3.192-12.694 15.087-14.812 17.53-.202-.39-.426-.9-.594-1.25 2.383-8.735 27.142-36.172 33.062-38.811.887-.396 1.343-1.513.719-1.563z" filter="url(#I)" opacity=".9" transform="translate(-67.34 100.421) scale(.71055)"/><path d="M133.966 279.046c2.022 2.114 1.295 4.428-.9 7.434-2.083 2.854-4.407 5.537-5.987 4.265-1.58-1.272-2.038-3.583-.483-8.149 1.341-3.938 5.31-5.703 7.37-3.55z" opacity=".9"/></g><path transform="translate(-252.084 100.421) scale(.71055)" d="M648.58 197.53s53.174-24.134 87.598 5.615c45.484 39.307 3.93 142.07 3.93 142.07l-91.53-147.69z" clip-path="url(#A)" fill="url(#J)" fill-rule="evenodd" opacity=".9"/><path transform="translate(32.14 100.421) scale(.71055)" d="M213.76 163.84c-27.515-7.3-62.329-54.468-82.544-35.938-14.924 13.681 16.284 76.368 7.861 83.667-8.422 7.3 88.216-43.997 74.683-47.73z" clip-path="url(#C)" fill="url(#K)" fill-rule="evenodd" opacity=".9"/><path d="M320.55 361.02c-2.546 2.368-1.145 20.87 1.253 28.205 2.398 7.335 7.386 13.617 9.032 12.42 1.551-1.129 1.963-10.684.294-18.059-1.693-7.476-2.178-20.328-4.51-21.169-2.282-.824-3.592-3.701-6.069-1.398zm18.623 14.796c-2.62 1.783-3.238 14.504-2.405 22.004 1.073 8.316 7.378 19.895 13.114 21.31 5.736 1.415 7.052-.42 5.783-8.742-1.27-8.323-4.651-16.646-5.216-22.006-.564-5.36-.16-7.633-3.673-10.151-3.512-2.518-4.983-4.197-7.603-2.414z" fill="url(#L)" fill-rule="evenodd" opacity=".95" transform="translate(-222.7 -11.849)"/><path d="M302.03 177.541c-31.986.098-63.776 12.124-79.16 21.627.715 2.542 12.218 5.906 15.41 5.707 32.552-10.123 62.275-22.661 92.949-19.94-.667-1.65-2.702-3.346-5.351-4.974-7.789-1.702-15.828-2.445-23.848-2.42z" fill="#faa" fill-rule="evenodd"/><path d="M308.81 184.021c-26.641.22-51.552 7.876-75.873 19.984 2.242.578 4.272.933 5.351.866 29.365-9.132 56.42-20.23 83.956-20.317-4.528-.387-9.007-.57-13.434-.533z" fill="#2b0000" fill-rule="evenodd" opacity=".75"/><path transform="matrix(1.1375 0 0 1.3779 188.34 -230.219)" d="M237.89 512.94c0 11.716-26.344 21.213-58.841 21.213s-58.841-9.498-58.841-21.213 26.344-21.213 58.841-21.213 58.841 9.498 58.841 21.213z" fill="url(#i)"/><path transform="matrix(.86232 0 0 .8057 323.284 -.648)" d="M145.71 579.86c0 17.949-31.18 32.5-69.643 32.5s-69.643-14.551-69.643-32.5 31.18-32.5 69.643-32.5 69.643 14.551 69.643 32.5z" fill="url(#j)" stroke="#000"/><path transform="matrix(.86212 0 0 .86212 322.781 -40.319)" d="M145.71 579.86c0 17.949-31.18 32.5-69.643 32.5s-69.643-14.551-69.643-32.5 31.18-32.5 69.643-32.5 69.643 14.551 69.643 32.5z" fill="url(#k)" stroke="#000"/><path d="m328.317 459.58.525 7.84.398 2.629-.109-5.685M448.368 458.456l.436 7.947-.436 3.484-.326-6.859h-.11" fill="none" stroke="#000" stroke-width=".8621836"/><path d="m336.016 473.268.067 5.878c6.005 6.338 26.49 11.101 35.789 13.009l.066-5.77c-9.93-.047-29.426-6.115-35.589-12.682M409.687 485.865l.067 5.225c5.002-.514 24.873-2.62 36.497-16.82l.067-7.728c-7.404 10.426-25.633 18.263-35.318 18.451" fill-opacity=".468" fill-rule="evenodd"/><path transform="matrix(.78965 0 0 .7563 328.283 20.772)" d="M145.71 579.86c0 17.949-31.18 32.5-69.643 32.5s-69.643-14.551-69.643-32.5 31.18-32.5 69.643-32.5 69.643 14.551 69.643 32.5z" fill="url(#l)" stroke="url(#m)"/><path d="M244.3 477.54c4.932-4.932 8.307-7.788 3.634-12.201-4.672-4.413-15.056-6.49-25.18-5.71-10.124.778-18.95 3.893-22.065 8.565-3.115 4.673-2.336 8.307.52 10.384 2.855 2.077 6.749 2.337 6.749 2.337" fill="url(#s)" fill-rule="evenodd" transform="translate(4.83 -334.719) scale(1.6774)"/><path d="M199.91 477.41c2.412 2.073 5.162 4.109 10.643 5.84l46.207-12.72c-1.526-3.238-4.836-5.585-10.513-6.749l-16.354-1.427-15.835 3.245 17.912 2.336-32.059 9.475" fill="url(#t)" fill-rule="evenodd" stroke="url(#p)" stroke-width=".514" transform="translate(4.83 -334.719) scale(1.6774)"/><path transform="matrix(1.1375 0 0 1.3779 122.34 -210.219)" d="M237.89 512.94c0 11.716-26.344 21.213-58.841 21.213s-58.841-9.498-58.841-21.213 26.344-21.213 58.841-21.213 58.841 9.498 58.841 21.213z" fill="url(#i)"/><path transform="matrix(.86232 0 0 .8057 257.284 19.352)" d="M145.71 579.86c0 17.949-31.18 32.5-69.643 32.5s-69.643-14.551-69.643-32.5 31.18-32.5 69.643-32.5 69.643 14.551 69.643 32.5z" fill="url(#j)" stroke="#000"/><path transform="matrix(.86212 0 0 .86212 256.781 -20.319)" d="M145.71 579.86c0 17.949-31.18 32.5-69.643 32.5s-69.643-14.551-69.643-32.5 31.18-32.5 69.643-32.5 69.643 14.551 69.643 32.5z" fill="url(#k)" stroke="#000"/><path d="m262.317 479.58.525 7.84.398 2.629-.109-5.685M382.368 478.456l.436 7.947-.436 3.484-.326-6.859h-.11" fill="none" stroke="#000" stroke-width=".8621836"/><path d="m270.016 493.268.067 5.878c6.005 6.338 26.49 11.101 35.789 13.009l.066-5.77c-9.93-.047-29.426-6.115-35.589-12.682M343.687 505.865l.067 5.225c5.002-.514 24.873-2.62 36.497-16.82l.067-7.728c-7.404 10.426-25.633 18.263-35.318 18.451" fill-opacity=".468" fill-rule="evenodd"/><path transform="matrix(.78965 0 0 .7563 262.283 40.772)" d="M145.71 579.86c0 17.949-31.18 32.5-69.643 32.5s-69.643-14.551-69.643-32.5 31.18-32.5 69.643-32.5 69.643 14.551 69.643 32.5z" fill="url(#l)" stroke="url(#m)"/><path d="M244.3 477.54c4.932-4.932 8.307-7.788 3.634-12.201-4.672-4.413-15.056-6.49-25.18-5.71-10.124.778-18.95 3.893-22.065 8.565-3.115 4.673-2.336 8.307.52 10.384 2.855 2.077 6.749 2.337 6.749 2.337" fill="url(#s)" fill-rule="evenodd" transform="translate(-61.17 -314.719) scale(1.6774)"/><path d="M199.91 477.41c2.412 2.073 5.162 4.109 10.643 5.84l46.207-12.72c-1.526-3.238-4.836-5.585-10.513-6.749l-16.354-1.427-15.835 3.245 17.912 2.336-32.059 9.475" fill="url(#t)" fill-rule="evenodd" stroke="url(#p)" stroke-width=".514" transform="translate(-61.17 -314.719) scale(1.6774)"/></svg>