<?xml version="1.0" encoding="UTF-8"?>
<svg width="64" height="64" version="1.1" viewBox="0 0 16.933 16.933" xmlns="http://www.w3.org/2000/svg"><g transform="matrix(2.1011 0 0 2.1011 -6.579 -13.25)"><path d="m9.1506 13.374c-2.4247 0-2.4247 0-1.2124-2.1759 1.2124-2.1759 1.2124-2.1759 2.4247 0 1.2124 2.1759 1.2124 2.1759-1.2124 2.1759z" color="#000000" fill="#666" stroke-width="0" style="-inkscape-stroke:none"/><path d="m10.03 12.686q0.03917 0.03779 0.03917 0.08739 0 0.06141-0.06202 0.10157-0.062018 0.04015-0.13383 0.04015-0.094659 0-0.15994-0.06141l-0.58101-0.55979-0.56469 0.55507q-0.065282 0.06614-0.1632 0.06614-0.07181 0-0.12404-0.03779-0.052225-0.03779-0.052225-0.08739 0-0.05196 0.048962-0.09684l0.62997-0.6165-0.62997-0.60468q-0.042433-0.03779-0.042433-0.08503 0-0.05905 0.062018-0.10157 0.062018-0.04252 0.13709-0.04252 0.094659 0 0.15994 0.06141l0.57448 0.55271 0.56142-0.5409q0.032641-0.03307 0.075075-0.0496 0.042433-0.0189 0.084867-0.0189 0.07181 0 0.1273 0.04252 0.05549 0.04016 0.05549 0.08976 0 0.04488-0.04243 0.08503l-0.6365 0.60704z" color="#000000" fill="#fff" style="-inkscape-stroke:none"/></g><g transform="matrix(1.1858 0 0 1.1858 -1.0657 -1.7262)" fill="#666"><g stroke-width="0"><path transform="matrix(1.7719 0 0 1.7719 -4.6494 -9.7178)" d="m3.5503 7.1438c-0.20775 0-0.37536 0.18748-0.37536 0.42056v1.8047c0 0.23308 0.16761 0.42056 0.37536 0.42056h4.5154c0.49442-0.85756 0.7984-1.2706 1.1094-1.236v-0.98928c0-0.23308-0.16732-0.42056-0.37506-0.42056z" color="#000000" fill="#ccc" style="-inkscape-stroke:none"/><path transform="matrix(1.7719 0 0 1.7719 -4.6494 -9.7178)" d="m3.5503 10.583c-0.20775 0-0.37536 0.18777-0.37536 0.42085v1.8045c0 0.23308 0.16761 0.42056 0.37536 0.42056h3.2073c-0.45525-0.28351-0.077295-0.96203 0.82742-2.5858 0.011529-0.02069 0.022181-0.0397 0.03354-0.06008z" color="#000000" fill="#ccc" style="-inkscape-stroke:none"/><path transform="matrix(1.7719 0 0 1.7719 -4.6494 -3.6234)" d="m4.1109 8.0795c-0.21373 0-0.38702 0.17329-0.38702 0.38702 0 0.21373 0.17329 0.38702 0.38702 0.38702 0.21373 0 0.38702-0.17329 0.38702-0.38702 0-0.21373-0.17329-0.38702-0.38702-0.38702zm1.3229 0c-0.00334 0-0.0066 2.076e-4 -0.00992 2.917e-4 -0.011171 2.83e-4 -0.022331 0.00112-0.033248 0.00233-0.0053 5.879e-4 -0.010515 0.00124-0.015749 0.00204a0.387 0.387 0 0 0-0.00583 8.749e-4c-9.44e-5 1.59e-5 -1.972e-4 -1.59e-5 -2.916e-4 0-0.013906 0.00235-0.027472 0.00554-0.040831 0.00933a0.387 0.387 0 0 0-0.00262 8.749e-4c-0.0065 0.0019-0.012896 0.0039-0.019249 0.00612-0.00172 6.023e-4 -0.00354 0.00112-0.00525 0.00175-0.00426 0.00156-0.00835 0.00325-0.012541 0.00496a0.387 0.387 0 0 0-0.00962 0.00408c-0.00421 0.00185-0.00841 0.00355-0.012541 0.00554a0.387 0.387 0 0 0-2.917e-4 2.916e-4c-0.00481 0.00232-0.0096 0.00478-0.014291 0.00729a0.387 0.387 0 0 0-0.00671 0.00379c-0.00387 0.00217-0.00788 0.00441-0.011666 0.00671a0.387 0.387 0 0 0-0.00525 0.00321c-0.00349 0.0022-0.00708 0.0044-0.010499 0.00671-0.00515 0.00348-0.010199 0.00708-0.015166 0.010791-0.00331 0.00247-0.0064 0.00501-0.00962 0.00758-0.00404 0.00323-0.00805 0.00653-0.011958 0.00992a0.387 0.387 0 0 0-0.00467 0.00408c-0.01 0.00894-0.019559 0.018363-0.028582 0.02829a0.387 0.387 0 0 0-0.00204 0.00233c-0.00138 0.00154-0.00273 0.00311-0.00408 0.00467-0.00338 0.0039-0.00669 0.00792-0.00992 0.011958-0.00258 0.00322-0.00511 0.00632-0.00758 0.00962-0.00371 0.00497-0.00731 0.010019-0.010791 0.015166-0.0023 0.0034-0.00452 0.00702-0.00671 0.010499-0.00278 0.00441-0.00556 0.00888-0.00817 0.013416a0.387 0.387 0 0 0-0.00292 0.00525c-0.00704 0.012694-0.013354 0.025855-0.018957 0.039373-0.00275 0.00663-0.0052 0.013312-0.00758 0.020124-0.00222 0.00635-0.00423 0.01275-0.00612 0.019249a0.387 0.387 0 0 0-0.00117 0.0035c-0.00167 0.00593-0.00328 0.012043-0.00467 0.018082a0.387 0.387 0 0 0-5.833e-4 0.00233c-0.0012 0.00538-0.00223 0.010582-0.00321 0.016041a0.387 0.387 0 0 0-5.833e-4 0.00379c-0.00119 0.00709-0.00211 0.014369-0.00292 0.021582-6.91e-4 0.00621-0.00136 0.012376-0.00175 0.018666a0.387 0.387 0 0 0-8.75e-4 0.024499 0.387 0.387 0 0 0 8.75e-4 0.025082c3.941e-4 0.00618 0.00107 0.012276 0.00175 0.018374 8.117e-4 0.00727 0.00171 0.014439 0.00292 0.021582 1.956e-4 0.00116 3.775e-4 0.00235 5.833e-4 0.0035 9.751e-4 0.00546 0.00201 0.010956 0.00321 0.016333a0.387 0.387 0 0 0 5.833e-4 0.00233c0.00139 0.00604 3e-3 0.012154 0.00467 0.018082a0.387 0.387 0 0 0 0.00117 0.0035c0.0019 0.0065 0.0039 0.012896 0.00612 0.019249 0.00238 0.00681 0.00483 0.013492 0.00758 0.020124 0.00998 0.024085 0.022329 0.046904 0.036748 0.068247 0.00348 0.00515 0.00708 0.010199 0.010791 0.015166 0.00249 0.00333 0.00499 0.00667 0.00758 0.00992 0.00321 0.00402 0.00655 0.00807 0.00992 0.011958a0.387 0.387 0 0 0 0.00408 0.00467c0.00894 0.01 0.018363 0.019559 0.02829 0.028582a0.387 0.387 0 0 0 0.00233 0.00204c0.00457 0.00408 0.00924 0.0078 0.013999 0.011666a0.387 0.387 0 0 0 0.00583 0.00467c0.00328 0.00256 0.00655 0.00512 0.00992 0.00758a0.387 0.387 0 0 0 0.00817 0.00612c0.00352 0.00243 0.00719 0.00468 0.010791 7e-3a0.387 0.387 0 0 0 0.00583 0.00379c0.00218 0.00135 0.0045 0.00249 0.00671 0.00379a0.387 0.387 0 0 0 0.014291 0.00817c0.00328 0.00175 0.00658 0.0033 0.00992 0.00496a0.387 0.387 0 0 0 0.00437 0.00233c7.88e-5 3.8e-5 2.128e-4 -3.8e-5 2.917e-4 0a0.387 0.387 0 0 0 0.00321 0.00146c0.0046 0.00217 0.0093 0.00443 0.013999 0.00642a0.387 0.387 0 0 0 0.00233 8.749e-4c0.00214 8.871e-4 0.00426 0.00178 0.00642 0.00262 0.00462 0.00182 0.0093 0.0036 0.013999 0.00525 0.010212 0.00358 0.020624 0.00661 0.031207 0.00933 0.00309 7.953e-4 0.00592 0.00161 0.00904 0.00233a0.387 0.387 0 0 0 0.00146 2.917e-4c0.00265 6.018e-4 0.00549 0.0012 0.00817 0.00175 0.0043 8.792e-4 0.00849 0.00189 0.012833 0.00262 0.00202 3.426e-4 0.00409 5.64e-4 0.00612 8.75e-4 0.00505 7.715e-4 0.010054 0.00147 0.015166 0.00204 1.949e-4 2.19e-5 3.883e-4 -2.17e-5 5.833e-4 0a0.387 0.387 0 0 0 0.0035 2.916e-4c0.00325 3.303e-4 0.00664 6.257e-4 0.00992 8.75e-4a0.387 0.387 0 0 0 0.00817 5.833e-4c0.00717 3.959e-4 0.01431 5.833e-4 0.021582 5.833e-4 0.00737 0 0.014606-1.767e-4 0.021874-5.833e-4a0.387 0.387 0 0 0 0.015458-0.00117c0.00245-2.342e-4 0.00485-5.953e-4 0.00729-8.75e-4 0.00481-5.515e-4 0.00954-0.00102 0.014291-0.00175a0.387 0.387 0 0 0 0.00525-8.75e-4c1.889e-4 -3.15e-5 3.945e-4 3.18e-5 5.833e-4 0a0.387 0.387 0 0 0 2.917e-4 0c0.00435-7.355e-4 0.00883-0.00175 0.013124-0.00262a0.387 0.387 0 0 0 0.00933-0.00204c0.013751-0.00317 0.027101-0.00707 0.040248-0.011666 0.00686-0.0024 0.013735-0.00511 0.020416-0.00787 0.00557-0.00231 0.010897-0.00473 0.016332-0.00729 0.00264-0.00124 0.00527-0.00249 0.00787-0.00379a0.387 0.387 0 0 0 0.013999-0.00729c8.723e-4 -4.8e-4 0.00176-9.717e-4 0.00262-0.00146a0.387 0.387 0 0 0 0.014291-0.00817c0.00179-0.00111 0.00348-0.00236 0.00525-0.0035a0.387 0.387 0 0 0 0.011374-0.00729 0.387 0.387 0 0 0 0.00817-0.00612 0.387 0.387 0 0 0 0.00992-0.00758c2.739e-4 -2.141e-4 6.015e-4 -3.684e-4 8.749e-4 -5.833e-4a0.387 0.387 0 0 0 0.00233-0.00175c9.098e-4 -7.259e-4 0.00172-0.0016 0.00262-0.00233a0.387 0.387 0 0 0 0.016332-0.013708c0.00458-0.00416 0.00904-0.00846 0.013416-0.012833a0.387 0.387 0 0 0 0.011374-0.011666c5.25e-4 -5.707e-4 9.367e-4 -0.00118 0.00146-0.00175a0.387 0.387 0 0 0 0.00612-7e-3 0.387 0.387 0 0 0 0.010208-0.011958c5.309e-4 -6.65e-4 9.317e-4 -0.00137 0.00146-0.00204a0.387 0.387 0 0 0 2.916e-4 -2.916e-4c0.00192-0.00244 0.00368-0.0051 0.00554-0.00758a0.387 0.387 0 0 0 0.016041-0.022749c5.973e-4 -9.318e-4 0.00116-0.00198 0.00175-0.00292a0.387 0.387 0 0 0 0.00321-0.00525c0.00646-0.010639 0.012356-0.021386 0.017791-0.032665 0.00312-0.00647 0.00599-0.013173 0.00875-0.019832 0.00264-0.00637 0.00528-0.012716 0.00758-0.019249 6.12e-4 -0.00174 0.00116-0.0035 0.00175-0.00525a0.387 0.387 0 0 0 0.00262-0.00846c0.00188-0.00606 0.00366-0.012192 0.00525-0.018374a0.387 0.387 0 0 0 0.00233-0.00962c1.807e-4 -7.855e-4 4.074e-4 -0.00155 5.833e-4 -0.00233 0.0012-0.00538 0.00223-0.010874 0.00321-0.016333a0.387 0.387 0 0 0 5.833e-4 -0.0035c8.667e-4 -0.00512 0.00167-0.01027 0.00233-0.015458 1.23e-5 -9.63e-5 -1.23e-5 -1.952e-4 0-2.916e-4a0.387 0.387 0 0 0 0.00117-0.00962c7.8e-5 -7.678e-4 2.182e-4 -0.00156 2.916e-4 -0.00233a0.387 0.387 0 0 0 5.834e-4 -0.00758c2.492e-4 -0.00328 4.161e-4 -0.00633 5.833e-4 -0.00962a0.387 0.387 0 0 0 0-0.00146c2.874e-4 -0.00612 5.833e-4 -0.012476 5.833e-4 -0.018666s-2.959e-4 -0.012256-5.833e-4 -0.018374c-2.28e-5 -4.838e-4 2.45e-5 -9.749e-4 0-0.00146a0.387 0.387 0 0 0 0-0.00175c-8.56e-5 -0.00155-1.88e-4 -0.00312-2.917e-4 -0.00467a0.387 0.387 0 0 0-2.916e-4 -0.0035c-4.696e-4 -0.00617-0.00129-0.012287-0.00204-0.018374a0.387 0.387 0 0 0 0-0.00117c-6.598e-4 -0.00519-0.00147-0.010333-0.00233-0.015458a0.387 0.387 0 0 0-5.833e-4 -0.00379c-9.751e-4 -0.00546-0.00201-0.010664-0.00321-0.016041-1.759e-4 -7.873e-4 -4.026e-4 -0.00155-5.833e-4 -0.00233a0.387 0.387 0 0 0-0.00233-0.00962c-0.00159-0.00618-0.00337-0.012315-0.00525-0.018374-0.00143-0.00459-0.00278-0.00919-0.00437-0.013708-0.0023-0.00653-0.00494-0.012882-0.00758-0.019249-0.00276-0.00666-0.00563-0.013366-0.00875-0.019832-0.00321-0.00666-0.00664-0.0131-0.010208-0.019541a0.387 0.387 0 0 0-0.00758-0.013416c-0.0015-0.00247-0.00311-0.00485-0.00467-0.00729a0.387 0.387 0 0 0-2.916e-4 -5.833e-4c-0.00168-0.00262-0.00351-0.0053-0.00525-0.00787a0.387 0.387 0 0 0-0.016333-0.022457c-0.00132-0.00168-0.00274-0.0033-0.00408-0.00496a0.387 0.387 0 0 0-0.00175-0.00233c-0.00197-0.00239-0.0041-0.00466-0.00612-7e-3a0.387 0.387 0 0 0-0.00612-7e-3 0.387 0.387 0 0 0-0.012833-0.013416c-0.00438-0.00438-0.00883-0.00867-0.013416-0.012833a0.387 0.387 0 0 0-7e-3 -0.00612c-0.0039-0.00338-0.00792-0.00669-0.011958-0.00992-0.00322-0.00258-0.00632-0.00511-0.00962-0.00758a0.387 0.387 0 0 0-0.015166-0.010791c-0.00342-0.00231-0.00701-0.00451-0.0105-0.00671a0.387 0.387 0 0 0-0.00525-0.00321c-0.00446-0.00271-0.00884-0.00534-0.013416-0.00787-8.843e-4 -4.895e-4 -0.00174-9.756e-4 -0.00262-0.00146a0.387 0.387 0 0 0-0.03529-0.016916c-5.94e-4 -2.484e-4 -0.00115-6.294e-4 -0.00175-8.75e-4 -0.00474-0.00195-0.00975-0.00377-0.014583-0.00554a0.387 0.387 0 0 0-0.00525-0.00175c-0.00653-0.00228-0.013152-0.00448-0.019832-0.00642-6.688e-4 -1.939e-4 -0.00137-3.929e-4 -0.00204-5.833e-4 -0.013359-0.00379-0.026925-0.00698-0.040831-0.00933-9.44e-5 -1.59e-5 -1.972e-4 1.59e-5 -2.917e-4 0a0.387 0.387 0 0 0-0.00583-8.749e-4c-0.00514-7.852e-4 -0.010254-0.00146-0.015458-0.00204-0.011011-0.00123-0.022269-0.00205-0.03354-0.00233a0.387 0.387 0 0 0-0.00992-2.917e-4z" color="#000000" fill="#666" style="-inkscape-stroke:none"/></g><path transform="matrix(1.7719 0 0 1.7719 -4.6494 -9.7178)" d="m5.8208 8.4667c0 0.21373-0.17326 0.387-0.387 0.387-0.21373 0-0.387-0.17326-0.387-0.387 0-0.21373 0.17326-0.387 0.387-0.387 0.21373 0 0.387 0.17326 0.387 0.387zm0 0a0.387 0.387 0 0 1-0.387 0.387 0.387 0.387 0 0 1-0.387-0.387 0.387 0.387 0 0 1 0.387-0.387 0.387 0.387 0 0 1 0.387 0.387zm-1.3229 0c0 0.21373-0.17326 0.387-0.387 0.387-0.21373 0-0.387-0.17326-0.387-0.387 0-0.21373 0.17326-0.387 0.387-0.387 0.21373 0 0.387 0.17326 0.387 0.387zm0 0a0.387 0.387 0 0 1-0.387 0.387 0.387 0.387 0 0 1-0.387-0.387 0.387 0.387 0 0 1 0.387-0.387 0.387 0.387 0 0 1 0.387 0.387z" color="#000000" fill="#666" stroke-linecap="round" stroke-linejoin="round" style="-inkscape-stroke:none"/></g></svg>
